# xmcd
#
# Track frame offsets:
#       150
#       41903
#       71848
#       87089
#
# Disc length: 1337 seconds
#
# Revision: 1
# Processed by: cddbd v1.4PL0 Copyright (c) Steve Scherf et al.
# Submitted via: MusiCat 1.1
#
DISCID=32053704
DTITLE=Gary Lucas - @Paradiso
DYEAR=1900
DGENRE=
TTITLE0=Rise Up To Be
TTITLE1=Bra Joe From Kilimanjaro
TTITLE2=Autobahn
TTITLE3=The Songstress On The Edge Of Heaven
EXTD=\n\n
EXTT0=
EXTT1=
EXTT2=
EXTT3=
PLAYORDER=
